<!DOCTYPE svg PUBLIC "-//W3C//DTD SVG 1.1//EN" "http://www.w3.org/Graphics/SVG/1.1/DTD/svg11.dtd">
<!-- Uploaded to: SVG Repo, www.svgrepo.com, Transformed by: SVG Repo Mixer Tools -->
<svg fill="#3eaff6" width="800px" height="800px" viewBox="0 0 512 512" version="1.1" xml:space="preserve" xmlns="http://www.w3.org/2000/svg" xmlns:xlink="http://www.w3.org/1999/xlink" stroke="#3eaff6">
<g id="SVGRepo_bgCarrier" stroke-width="0"/>
<g id="SVGRepo_tracerCarrier" stroke-linecap="round" stroke-linejoin="round"/>
<g id="SVGRepo_iconCarrier"> <g id="chat-message-heart-love-valentine"> <path d="M408,72H136c-17.68,0-32,14.32-32,32v104c-22.055,0-40,17.945-40,40v153.359c0,9.906,5.684,18.414,14.836,22.203 c3.055,1.266,6.211,1.891,9.316,1.891c6.168,0,12.145-2.438,16.785-7.078L139.313,384H280c22.055,0,40-17.945,40-40v-48h40 l52.72,52.72C422.8,358.8,440,351.6,440,337.36V104C440,86.32,425.68,72,408,72z M304,344c0,13.234-10.766,24-24,24H132.688 l-39.063,39.063c-3.488,3.492-7.512,2.203-8.668,1.719c-1.16-0.477-4.957-2.438-4.957-7.422V248c0-13.234,10.766-24,24-24h176 c12.603,0,24,10.229,24,24V344z M318.4,192.88l-19.66,19.968C292.923,209.819,287.587,208,280,208h-39.489L225.6,192.88 c-12.8-13.04-12.8-34.08,0-47.12s33.6-13.04,46.4,0c12.8-13.04,33.6-13.04,46.4,0C331.2,158.8,331.2,179.84,318.4,192.88z M256,336 c0,4.422-3.582,8-8,8H136c-4.418,0-8-3.578-8-8s3.582-8,8-8h112C252.418,328,256,331.578,256,336z M256,256c0,4.422-3.582,8-8,8 H136c-4.418,0-8-3.578-8-8s3.582-8,8-8h112C252.418,248,256,251.578,256,256z M128,296c0-4.422,3.582-8,8-8h88c4.418,0,8,3.578,8,8 s-3.582,8-8,8h-88C131.582,304,128,300.422,128,296z"/> </g> <g id="Layer_1"/> </g>
</svg>