<!DOCTYPE svg PUBLIC "-//W3C//DTD SVG 1.1//EN" "http://www.w3.org/Graphics/SVG/1.1/DTD/svg11.dtd">
<!-- Uploaded to: SVG Repo, www.svgrepo.com, Transformed by: SVG Repo Mixer Tools -->
<svg fill="#3eaff6" version="1.1" id="Director" xmlns="http://www.w3.org/2000/svg" xmlns:xlink="http://www.w3.org/1999/xlink" width="800px" height="800px" viewBox="0 0 300 300" xml:space="preserve" stroke="#3eaff6">
<g id="SVGRepo_bgCarrier" stroke-width="0"/>
<g id="SVGRepo_tracerCarrier" stroke-linecap="round" stroke-linejoin="round"/>
<g id="SVGRepo_iconCarrier"> <path d="M146,253h-36.5l-11.9-17.1l28.4-40.9v-15H63.7l-10.2-63H38.3l12.6,78l28.4,40.9L41,291h18.3l29.2-42l29.2,42h18.3l-18.1-26 H146V253z M69.2,195h38.5l-19.2,27.7L69.2,195z M232,29.8l-2.2-5.6l25.8-10.1l2.2,5.6L232,29.8z M92,31.6 c0-12.4,10.1-22.5,22.5-22.5c7.6,0,14.4,3.8,18.5,9.6l17-3.7c2.5-0.6,5.1,1.1,5.6,3.6c0.6,2.5-1.1,5.1-3.6,5.6l-15.4,3.4 c0.2,1.3,0.4,2.6,0.4,4c0,12.4-10.1,22.5-22.5,22.5S92,44,92,31.6z M217.1,17.2l4.8-4.2v61.4l-4.8-4.1c-0.1-0.1-11.7-9.9-20.9-13.2 c-10.2-3.7-35.1-4.4-35.4-4.4l-2.8-0.1V34.9l2.8-0.1c0.2,0,24.8-0.9,35.5-4.4C205.5,27.4,217.1,17.4,217.1,17.2z M259,40v6h-27v-6 H259z M194,65.9c4.7,4.7,4.7,12.4,0,17.1l-35.9,35c-2.9,2.9-6.6,4.3-10.3,4.3c-3.5,0-7.1-1.3-9.9-3.9l-26.1-26.1 c-1.3-1.4-3.5-1.4-4.9,0c-1.4,1.3-1.4,3.5,0,4.9l16.1,16.1l-7,28.7h45c9,0,15.8,8.3,13.9,17.1l-16.4,75.4 c-1.7,7.8-9.3,12.8-17.1,11.2c-8-1.6-13.1-9.4-11.4-17.3l12-56.5H91.1c-17.5,0-26.9-14.7-23.8-29.1L80,77.9 c1.3-6.3,6.4-16.8,16.6-19.2c11.1-2.6,18.4,2,24.1,7.8c6.8,6.8,27.2,27.2,27.2,27.2l29.2-27.9C181.8,61.3,189.3,61.3,194,65.9z M231.9,55l25.8,10.1l-2.2,5.6l-25.8-10.1L231.9,55z"/> </g>
</svg>