<!DOCTYPE svg PUBLIC "-//W3C//DTD SVG 1.1//EN" "http://www.w3.org/Graphics/SVG/1.1/DTD/svg11.dtd">

<!-- Uploaded to: SVG Repo, www.svgrepo.com, Transformed by: SVG Repo Mixer Tools -->
<svg fill="#3eaff6" version="1.1" id="Capa_1" xmlns="http://www.w3.org/2000/svg" xmlns:xlink="http://www.w3.org/1999/xlink" width="150px" height="150px" viewBox="0 0 794.944 794.943" xml:space="preserve">

<g id="SVGRepo_bgCarrier" stroke-width="0"/>

<g id="SVGRepo_tracerCarrier" stroke-linecap="round" stroke-linejoin="round"/>

<g id="SVGRepo_iconCarrier"> <g> <g> <path d="M139.432,645.451c37.142,0,67.247-29.514,67.247-65.924c0-36.414-30.105-65.922-67.247-65.922 c-37.14,0-67.245,29.508-67.245,65.922C72.187,615.938,102.292,645.451,139.432,645.451z"/> <path d="M27.358,681.404v113.537h32.604v-97.557h24.452v97.557h16.303h16.301h57.057h16.303h16.303v-97.557h20.705l-1.229,97.557 h32.605l1.424-113.336c0.055-4.273-1.64-8.396-4.704-11.424c-3.065-3.059-7.234-4.758-11.599-4.758h-53.506h-89.66H43.66 C34.656,665.424,27.358,672.59,27.358,681.404z"/> <path d="M460.379,579.529c0-36.414-30.105-65.922-67.248-65.922c-37.142,0-67.244,29.508-67.244,65.922 c0,36.41,30.104,65.922,67.244,65.922C430.274,645.451,460.379,615.938,460.379,579.529z"/> <path d="M512.461,794.943l1.424-113.336c0.057-4.273-1.643-8.396-4.703-11.424c-3.064-3.059-7.234-4.758-11.6-4.758h-53.508 h-89.659h-57.057c-9.004,0-16.303,7.166-16.303,15.979v113.539h32.605v-97.557h24.45v97.557h16.304h16.301h57.058h16.301h16.307 v-97.557h20.703l-1.229,97.557H512.461L512.461,794.943z"/> <path d="M579.586,579.529c0,36.41,30.104,65.922,67.246,65.922s67.244-29.512,67.244-65.922c0-36.414-30.104-65.922-67.244-65.922 S579.586,543.113,579.586,579.529z"/> <path d="M766.159,794.943l1.426-113.336c0.057-4.273-1.641-8.396-4.705-11.424c-3.064-3.059-7.234-4.758-11.598-4.758h-53.508 h-89.662h-57.055c-9.004,0-16.303,7.166-16.303,15.979v113.539h32.604v-97.557h24.451v97.557h16.303h16.303h57.061h16.301h16.303 v-97.557h20.703l-1.225,97.557H766.159L766.159,794.943z"/> <path d="M718.073,0H76.866v468.771h97.814h293.418h249.975V0L718.073,0z M397.463,392.862 c-89.277,0-161.647-70.949-161.647-158.468c0-87.521,72.37-158.485,161.647-158.485c89.282,0,161.667,70.964,161.667,158.485 C559.129,321.913,486.743,392.862,397.463,392.862z"/> <polygon points="333.272,305.308 461.653,234.394 333.272,163.477 "/> </g> </g> </g>

</svg>