<!DOCTYPE svg PUBLIC "-//W3C//DTD SVG 1.1//EN" "http://www.w3.org/Graphics/SVG/1.1/DTD/svg11.dtd">
<!-- Uploaded to: SVG Repo, www.svgrepo.com, Transformed by: SVG Repo Mixer Tools -->
<svg fill="#3eaff6" height="800px" width="800px" version="1.1" id="Layer_1" xmlns="http://www.w3.org/2000/svg" xmlns:xlink="http://www.w3.org/1999/xlink" viewBox="0 0 512.019 512.019" xml:space="preserve" stroke="#3eaff6">
<g id="SVGRepo_bgCarrier" stroke-width="0"/>
<g id="SVGRepo_tracerCarrier" stroke-linecap="round" stroke-linejoin="round"/>
<g id="SVGRepo_iconCarrier"> <g> <g> <g> <path d="M298.471,403.389c-1.067-5.781-6.613-9.579-12.437-8.512L125.97,424.893L65.703,83.432l362.965-60.48l44.864,254.144 c1.003,5.803,6.549,9.664,12.352,8.64c5.803-1.024,9.685-6.549,8.64-12.352L447.847,8.829c-1.003-5.76-6.528-9.707-12.245-8.661 L301.778,22.483L32.914,0.083c-2.88-0.299-5.717,0.704-7.893,2.581c-2.176,1.877-3.499,4.565-3.648,7.445l-21.333,384 c-0.32,5.653,3.84,10.581,9.472,11.2l93.184,10.347l4.16,23.552c0.491,2.795,2.091,5.291,4.437,6.912 c1.771,1.237,3.883,1.899,6.037,1.899c0.661,0,1.323-0.064,1.963-0.192l170.667-32 C295.762,414.739,299.559,409.171,298.471,403.389z"/> <path d="M467.943,444.904l-32.021-8l-1.344-5.355c8.32-9.173,14.208-20.885,16.661-33.024c5.696-2.944,9.835-8.533,10.667-15.253 l2.325-18.56c0.704-5.632-1.024-11.307-4.757-15.552c-1.152-1.323-2.475-2.475-3.904-3.435l0.555-11.307l1.963-1.963 c5.483-5.845,12.928-18.325,1.152-36.331c-5.589-8.576-17.109-18.773-40.171-18.773c-6.784,0-22.123,0-37.013,9.344 c-43.904,1.536-49.067,25.195-49.067,43.072c0,3.52,0.619,10.112,1.237,15.616c-1.579,1.003-3.029,2.219-4.288,3.648 c-3.776,4.288-5.547,9.984-4.843,15.68l2.325,18.56c0.875,6.933,5.269,12.693,11.776,15.531 c2.411,11.627,7.979,22.891,15.765,31.829l-1.557,6.272l-32.021,8c-25.941,6.485-44.053,29.696-44.053,56.448 c0,5.888,4.779,10.667,10.667,10.667H501.33c5.888,0,10.667-4.8,10.667-10.688C511.997,474.6,493.885,451.389,467.943,444.904z"/> </g> </g> </g> </g>
</svg>